<svg xmlns="http://www.w3.org/2000/svg" xmlns:xlink="http://www.w3.org/1999/xlink" width="500" zoomAndPan="magnify" viewBox="0 0 375 374.999991" height="500" preserveAspectRatio="xMidYMid meet" version="1.0"><defs><clipPath id="8c1fa30d67"><path d="M 11.71875 188 L 131 188 L 131 240 L 11.71875 240 Z M 11.71875 188 " clip-rule="nonzero"/></clipPath><clipPath id="cb391e7e6e"><path d="M 223.269531 108.199219 L 363.464844 108.199219 L 363.464844 221.289062 L 223.269531 221.289062 Z M 223.269531 108.199219 " clip-rule="nonzero"/></clipPath></defs><path fill="#ffde59" d="M 313.816406 88.820312 L 286.058594 129.828125 L 304.960938 120.132812 C 305.054688 119.789062 305.191406 119.453125 305.40625 119.140625 L 321.730469 95.371094 C 320.488281 94.96875 319.3125 94.3125 318.328125 93.332031 L 313.816406 88.820312 " fill-opacity="1" fill-rule="nonzero"/><path fill="#ffde59" d="M 306.550781 72.257812 C 306.929688 72.503906 307.253906 72.824219 307.515625 73.222656 L 322.980469 88.683594 C 323.730469 89.433594 324.945312 89.433594 325.695312 88.683594 L 327.9375 86.445312 C 327.9375 86.441406 327.941406 86.4375 327.945312 86.433594 L 328.878906 85.503906 C 329.242188 85.144531 329.441406 84.65625 329.441406 84.148438 C 329.441406 83.632812 329.242188 83.152344 328.878906 82.792969 L 305.140625 59.066406 C 304.765625 58.691406 304.277344 58.503906 303.785156 58.503906 C 303.292969 58.503906 302.800781 58.691406 302.425781 59.066406 L 299.246094 62.246094 C 298.886719 62.609375 298.6875 63.089844 298.6875 63.601562 C 298.6875 64.117188 298.886719 64.597656 299.246094 64.957031 L 306.550781 72.257812 " fill-opacity="1" fill-rule="nonzero"/><path fill="#ffde59" d="M 271.492188 78.289062 C 271.402344 78.289062 271.316406 78.261719 271.222656 78.253906 L 261.886719 95.632812 L 299.3125 74.324219 L 294.59375 69.609375 C 293.613281 68.625 292.9375 67.433594 292.53125 66.144531 L 273.191406 77.816406 C 272.660156 78.136719 272.074219 78.289062 271.492188 78.289062 " fill-opacity="1" fill-rule="nonzero"/><path fill="#ffde59" d="M 155.765625 198.777344 L 141.316406 184.339844 L 135.464844 190.074219 L 149.96875 204.570312 L 155.765625 198.777344 " fill-opacity="1" fill-rule="nonzero"/><g clip-path="url(#8c1fa30d67)"><path fill="#ffde59" d="M 119.613281 205.074219 C 118.980469 205.273438 118.296875 205.304688 117.644531 205.097656 L 79.414062 193.074219 C 79.328125 193.050781 79.242188 193.019531 79.164062 192.984375 C 69.101562 188.898438 58.066406 187.285156 47.265625 188.289062 L 21.488281 190.703125 C 15.996094 191.21875 11.808594 195.761719 11.75 201.277344 C 11.714844 204.335938 12.996094 207.269531 15.253906 209.332031 C 17.515625 211.390625 20.566406 212.386719 23.601562 212.070312 L 57.941406 208.5 C 58.625 208.441406 59.316406 208.578125 59.914062 208.917969 L 97.238281 230.234375 C 97.492188 230.378906 97.726562 230.554688 97.933594 230.765625 L 106.585938 239.414062 L 130.277344 215.734375 L 119.613281 205.074219 " fill-opacity="1" fill-rule="nonzero"/></g><path fill="#ffde59" d="M 221.746094 156.441406 L 193.945312 153.597656 C 192.136719 153.410156 190.824219 151.792969 191.007812 149.988281 C 191.191406 148.183594 192.816406 146.886719 194.613281 147.054688 L 225.113281 150.175781 L 278.929688 50.019531 C 282.5 43.371094 281.1875 35.082031 275.730469 29.863281 C 272.058594 26.351562 267.136719 24.671875 262.160156 25.222656 C 257.1875 25.769531 252.742188 28.46875 249.964844 32.628906 L 174.929688 145.039062 L 182.878906 145.855469 C 184.6875 146.035156 186 147.652344 185.816406 149.457031 C 185.644531 151.148438 184.214844 152.410156 182.546875 152.410156 C 182.4375 152.410156 182.324219 152.40625 182.210938 152.394531 L 170.800781 151.226562 L 166.089844 158.28125 L 217.90625 163.582031 L 221.746094 156.441406 " fill-opacity="1" fill-rule="nonzero"/><path fill="#ffde59" d="M 65.1875 278.023438 C 64.765625 277.742188 64.4375 277.378906 64.191406 276.96875 C 58.75 290.234375 60.769531 305.960938 69.585938 315.816406 C 81.582031 329.222656 98.519531 330.164062 111.472656 325.050781 L 65.328125 278.09375 C 65.28125 278.070312 65.234375 278.054688 65.1875 278.023438 " fill-opacity="1" fill-rule="nonzero"/><path fill="#ffde59" d="M 161.46875 164.417969 C 161.34375 164.59375 161.269531 164.789062 161.109375 164.945312 L 156.761719 169.203125 L 170.695312 183.128906 C 171.976562 184.414062 171.976562 186.496094 170.695312 187.777344 C 170.050781 188.421875 169.210938 188.742188 168.367188 188.742188 C 167.527344 188.742188 166.683594 188.421875 166.042969 187.777344 L 152.0625 173.808594 L 146.015625 179.734375 L 162.742188 196.453125 C 164.027344 197.738281 164.027344 199.816406 162.742188 201.101562 L 152.296875 211.542969 C 151.679688 212.160156 150.84375 212.507812 149.96875 212.507812 C 149.097656 212.507812 148.261719 212.160156 147.644531 211.542969 L 130.765625 194.675781 L 124.578125 200.738281 L 186.101562 262.230469 L 192.246094 255.96875 C 192.097656 255.863281 191.929688 255.804688 191.796875 255.671875 L 175.25 239.132812 C 173.964844 237.847656 173.964844 235.769531 175.25 234.484375 L 185.695312 224.042969 C 186.980469 222.757812 189.0625 222.757812 190.347656 224.042969 L 206.894531 240.582031 C 206.972656 240.660156 207.003906 240.765625 207.074219 240.851562 L 213.082031 234.726562 C 213.019531 234.675781 212.941406 234.65625 212.882812 234.59375 L 173.976562 195.710938 C 172.691406 194.425781 172.691406 192.34375 173.976562 191.0625 C 175.261719 189.777344 177.34375 189.777344 178.628906 191.0625 L 217.535156 229.945312 C 217.578125 229.988281 217.589844 230.046875 217.628906 230.089844 L 221.917969 225.71875 C 222.070312 225.566406 222.261719 225.488281 222.433594 225.371094 L 216.769531 170.074219 L 161.46875 164.417969 " fill-opacity="1" fill-rule="nonzero"/><g clip-path="url(#cb391e7e6e)"><path fill="#ffde59" d="M 338.882812 110.121094 L 236.402344 162.691406 L 239.679688 194.679688 C 239.863281 196.484375 238.546875 198.097656 236.738281 198.285156 C 236.628906 198.292969 236.511719 198.300781 236.402344 198.300781 C 234.734375 198.300781 233.308594 197.039062 233.132812 195.347656 L 230.121094 165.914062 L 223.3125 169.40625 L 228.625 221.277344 L 235.347656 216.945312 L 234.445312 208.148438 C 234.261719 206.34375 235.574219 204.726562 237.382812 204.542969 C 239.199219 204.378906 240.804688 205.671875 240.988281 207.480469 L 241.550781 212.941406 L 355.738281 139.292969 C 359.984375 136.554688 362.757812 132.109375 363.347656 127.09375 C 363.933594 122.074219 362.269531 117.105469 358.777344 113.460938 C 353.652344 108.113281 345.472656 106.742188 338.882812 110.121094 " fill-opacity="1" fill-rule="nonzero"/></g><path fill="#ffde59" d="M 73.574219 272.410156 C 72.796875 273.1875 72.070312 274.019531 71.382812 274.875 L 112.886719 317.105469 C 113.894531 316.328125 114.875 315.503906 115.785156 314.597656 C 127.421875 302.96875 127.421875 284.039062 115.785156 272.410156 C 104.144531 260.78125 85.214844 260.777344 73.574219 272.410156 " fill-opacity="1" fill-rule="nonzero"/><path fill="#ffde59" d="M 134.929688 220.382812 L 111.238281 244.0625 L 114.976562 247.800781 C 121.820312 243.039062 131.320312 243.695312 137.417969 249.789062 C 143.519531 255.882812 144.167969 265.375 139.40625 272.21875 L 143.261719 276.070312 L 166.953125 252.390625 L 134.929688 220.382812 " fill-opacity="1" fill-rule="nonzero"/><path fill="#ffde59" d="M 117.226562 254.4375 L 110.777344 260.878906 C 114.261719 262.59375 117.539062 264.867188 120.433594 267.761719 C 122.960938 270.285156 125.015625 273.101562 126.644531 276.089844 L 132.769531 269.96875 C 137.050781 265.6875 137.050781 258.71875 132.769531 254.4375 C 128.480469 250.15625 121.511719 250.15625 117.226562 254.4375 " fill-opacity="1" fill-rule="nonzero"/><path fill="#ffde59" d="M 181.761719 267.191406 L 171.605469 257.039062 L 147.910156 280.71875 L 156.058594 288.863281 C 156.269531 289.066406 156.445312 289.300781 156.589844 289.554688 L 177.917969 326.859375 C 178.257812 327.457031 178.40625 328.148438 178.332031 328.832031 L 174.761719 363.152344 C 174.445312 366.195312 175.445312 369.238281 177.507812 371.496094 C 179.542969 373.730469 182.429688 375 185.445312 375 C 185.488281 375 185.523438 375 185.5625 375 C 191.082031 374.941406 195.628906 370.757812 196.144531 365.265625 L 198.558594 339.503906 C 199.574219 328.699219 197.949219 317.675781 193.863281 307.621094 C 193.828125 307.539062 193.796875 307.457031 193.773438 307.371094 L 181.742188 269.160156 C 181.535156 268.503906 181.5625 267.824219 181.761719 267.191406 " fill-opacity="1" fill-rule="nonzero"/><path fill="#ffde59" d="M 188.019531 231.015625 L 182.226562 236.808594 L 196.445312 251.023438 C 196.5625 251.140625 196.613281 251.289062 196.710938 251.417969 L 202.566406 245.445312 C 202.464844 245.363281 202.339844 245.328125 202.242188 245.230469 L 188.019531 231.015625 " fill-opacity="1" fill-rule="nonzero"/><path fill="#ffde59" d="M 283.496094 28.976562 C 315.371094 18.871094 327.871094 40.867188 328.351562 41.742188 C 330.503906 46.109375 330.910156 50.199219 329.554688 53.90625 C 327.613281 59.222656 322.554688 62.761719 319.761719 64.378906 L 324.546875 69.160156 C 328.230469 66.785156 333.398438 62.515625 335.714844 56.207031 C 337.730469 50.738281 337.238281 44.890625 334.203125 38.734375 C 334.039062 38.433594 317.933594 9.519531 278.628906 23.691406 C 279.171875 24.128906 279.710938 24.570312 280.222656 25.058594 C 281.476562 26.257812 282.554688 27.582031 283.496094 28.976562 " fill-opacity="1" fill-rule="nonzero"/><path fill="#ffde59" d="M 100.738281 22.773438 C 108.03125 17.015625 115.808594 12.980469 123.851562 10.773438 C 137.300781 7.085938 146.804688 9.007812 152.097656 16.496094 C 161.496094 29.777344 147.402344 42.972656 142.859375 46.703125 C 126.832031 59.855469 98.488281 68.085938 72.261719 60.835938 C 75.75 49.105469 84.003906 35.984375 100.738281 22.773438 Z M 202.398438 91.238281 C 201.789062 91.28125 202.398438 91.238281 202.398438 91.238281 C 201.847656 91.65625 144.898438 133.398438 92.074219 111.617188 C 81.429688 107.230469 73.621094 97.632812 71.1875 85.957031 C 70.066406 80.558594 69.628906 74.203125 70.785156 67.210938 C 99.167969 74.894531 129.730469 65.988281 147.035156 51.78125 C 161.898438 39.585938 165.894531 24.609375 157.46875 12.699219 C 150.507812 2.855469 138.277344 -0.00390625 122.113281 4.433594 C 113.214844 6.871094 104.652344 11.304688 96.660156 17.617188 C 78.753906 31.75 69.8125 45.957031 65.964844 58.773438 C 56.792969 55.285156 48.039062 49.726562 40.347656 41.632812 C 39.09375 40.3125 37.015625 40.265625 35.695312 41.511719 C 34.378906 42.761719 34.324219 44.84375 35.578125 46.160156 C 44.222656 55.261719 54.097656 61.414062 64.425781 65.195312 C 62.933594 73.4375 63.429688 80.949219 64.746094 87.296875 C 67.625 101.109375 76.902344 112.476562 89.566406 117.695312 C 101.6875 122.699219 113.808594 124.667969 125.402344 124.667969 C 152.839844 124.667969 177.253906 113.628906 191.519531 105.5 L 202.398438 91.238281 " fill-opacity="1" fill-rule="nonzero"/></svg>